<svg width="17" height="25" viewBox="0 0 17 25" fill="none" xmlns="http://www.w3.org/2000/svg">
<path d="M4.76478 24.0711C10.4734 20.4557 14.3388 14.6821 15.1985 10.7918C16.3953 5.36192 14.8065 1.92526 11.3813 1.73281C7.8942 1.53349 7.04135 5.58187 6.8075 7.20397C6.10596 11.9328 3.18286 14.0498 1.14701 15.6581" fill="#9C8480"/>
<path d="M4.76478 24.0711C10.4734 20.4557 14.3388 14.6821 15.1985 10.7918C16.3953 5.36192 14.8065 1.92526 11.3813 1.73281C7.8942 1.53349 7.04135 5.58187 6.8075 7.20397C6.10596 11.9328 3.18286 14.0498 1.14701 15.6581C2.5389 16.8494 1.49295 19.9103 0.499979 22C-0.501046 24.1066 3.84318 24.2141 4.76478 24.0711Z" fill="#9C8480"/>
<path d="M4.7648 24.0711C10.4734 20.4557 14.3388 14.6821 15.1985 10.7918C16.3953 5.36192 14.8065 1.92526 11.3813 1.73281C7.89422 1.53349 7.04137 5.58187 6.80752 7.20397C6.10598 11.9328 3.18288 14.0498 1.14703 15.6581" stroke="#231F20" stroke-width="1.5" stroke-linecap="round" stroke-linejoin="round"/>
</svg>
