<svg width="32" height="36" viewBox="0 0 32 36" fill="none" xmlns="http://www.w3.org/2000/svg">
<mask id="path-1-inside-1_1427_41796" fill="white">
<path fill-rule="evenodd" clip-rule="evenodd" d="M19.0549 31.7087C26.4303 30.2828 32 23.7918 32 16C32 7.16344 24.8366 0 16 0C7.16344 0 0 7.16344 0 16C0 23.7918 5.56974 30.2828 12.9451 31.7087L15.134 35.5C15.5189 36.1667 16.4811 36.1667 16.866 35.5L19.0549 31.7087Z"/>
</mask>
<path fill-rule="evenodd" clip-rule="evenodd" d="M19.0549 31.7087C26.4303 30.2828 32 23.7918 32 16C32 7.16344 24.8366 0 16 0C7.16344 0 0 7.16344 0 16C0 23.7918 5.56974 30.2828 12.9451 31.7087L15.134 35.5C15.5189 36.1667 16.4811 36.1667 16.866 35.5L19.0549 31.7087Z" fill="white"/>
<path d="M19.0549 31.7087L18.8651 30.7269L18.4171 30.8135L18.1889 31.2087L19.0549 31.7087ZM12.9451 31.7087L13.8111 31.2087L13.5829 30.8135L13.1349 30.7269L12.9451 31.7087ZM15.134 35.5L16 35L15.134 35.5ZM16.866 35.5L17.732 36L17.7321 36L16.866 35.5ZM31 16C31 23.3037 25.779 29.3902 18.8651 30.7269L19.2448 32.6905C27.0816 31.1754 33 24.2799 33 16H31ZM16 1C24.2843 1 31 7.71573 31 16H33C33 6.61116 25.3888 -1 16 -1V1ZM1 16C1 7.71573 7.71573 1 16 1V-1C6.61116 -1 -1 6.61116 -1 16H1ZM13.1349 30.7269C6.22104 29.3902 1 23.3037 1 16H-1C-1 24.2799 4.91844 31.1754 12.7552 32.6905L13.1349 30.7269ZM16 35L13.8111 31.2087L12.079 32.2087L14.268 36L16 35ZM16 35L16 35L14.2679 36C15.0378 37.3333 16.9623 37.3333 17.732 36L16 35ZM18.1889 31.2087L16 35L17.7321 36L19.921 32.2087L18.1889 31.2087Z" fill="#D6D6D6" mask="url(#path-1-inside-1_1427_41796)"/>
</svg>
