<svg width="49" height="79" viewBox="0 0 49 79" fill="none" xmlns="http://www.w3.org/2000/svg">
<path d="M31.4032 40.2346L20.9901 51.5618L37.4626 52.3385L43 49.5C42.7305 44.638 42.0259 42.6189 40 40L31.4032 40.2346Z" fill="#9C8480"/>
<path d="M15.0033 64.7497C8.91636 65.6914 9.4941 55.9794 10.9316 50.9275C12.369 45.8756 15.7117 42.2946 15.7117 42.2946L24.7767 35.2151L41.7444 31.1736" fill="#9C8480"/>
<path d="M15.0033 64.7497C8.91636 65.6914 9.4941 55.9794 10.9316 50.9275C12.369 45.8756 15.7117 42.2946 15.7117 42.2946L24.7767 35.2151L41.7444 31.1736" stroke="#231F20" stroke-width="1.5" stroke-miterlimit="10" stroke-linecap="round"/>
<path d="M42.3587 1.28199C41.4783 1.03455 40.536 0.972691 39.58 1.11703C35.9829 1.67377 33.5206 5.04169 34.0777 8.62956C34.6348 12.2243 38.005 14.685 41.6021 14.1213C45.1992 13.5646 47.6615 10.1967 47.1044 6.60881C46.6917 3.97633 44.7797 1.9487 42.3656 1.27512" fill="#9C8480"/>
<path d="M42.3587 1.28199C41.4783 1.03455 40.536 0.972691 39.58 1.11703C35.9829 1.67377 33.5206 5.04169 34.0777 8.62956C34.6348 12.2243 38.005 14.685 41.6021 14.1213C45.1992 13.5646 47.6615 10.1967 47.1044 6.60881C46.6917 3.97633 44.7797 1.9487 42.3656 1.27512" stroke="#231F20" stroke-width="1.5" stroke-miterlimit="10" stroke-linecap="round"/>
<path d="M1.66733 13.6652C1.11022 10.0705 3.5725 6.70943 7.16275 6.15269C10.7599 5.59595 14.1232 8.0566 14.6871 11.6445C15.2443 15.2392 12.782 18.6003 9.18485 19.157C5.58772 19.7137 2.22444 17.2531 1.66733 13.6652Z" fill="#9C8480"/>
<path d="M1.66733 13.6652C1.11022 10.0705 3.5725 6.70943 7.16275 6.15269C10.7599 5.59595 14.1232 8.0566 14.6871 11.6445C15.2443 15.2392 12.782 18.6003 9.18485 19.157C5.58772 19.7137 2.22444 17.2531 1.66733 13.6652V13.6652Z" stroke="#231F20" stroke-width="1.5" stroke-miterlimit="10" stroke-linecap="round"/>
<path d="M48.0031 21.7084C49.7157 32.747 42.0813 42.1359 29.653 44.0673C17.2247 45.9987 7.09355 39.3591 5.38096 28.3274C3.66149 17.2889 11.1515 6.96518 23.5867 5.03378C36.015 3.10238 46.2905 10.6768 48.0031 21.7084Z" fill="#9C8480"/>
<path d="M48.0031 21.7084C49.7157 32.747 42.0813 42.1359 29.653 44.0673C17.2247 45.9987 7.09355 39.3591 5.38096 28.3274C3.66149 17.2889 11.1515 6.96518 23.5867 5.03378C36.015 3.10238 46.2905 10.6768 48.0031 21.7084V21.7084Z" stroke="#231F20" stroke-width="1.5" stroke-miterlimit="10" stroke-linecap="round"/>
<path d="M35.2996 21.611C35.1483 20.6418 34.2404 19.982 33.2706 20.1332C32.3009 20.2844 31.6406 21.1917 31.785 22.154C31.9363 23.1231 32.8442 23.7898 33.814 23.6386C34.7838 23.4874 35.444 22.5801 35.2927 21.611" fill="#231F20"/>
<path d="M20.9689 23.8311C20.8175 22.8619 19.9097 22.2021 18.9399 22.3533C17.9701 22.5045 17.3098 23.4118 17.4543 24.374C17.6056 25.3432 18.5135 26.0099 19.4832 25.8587C20.453 25.7075 21.1133 24.8002 20.962 23.8311" fill="#231F20"/>
<path d="M19.6949 31.2452C19.1653 27.8155 22.3566 25.4167 26.6484 24.75C30.9471 24.0832 34.7162 25.4029 35.2527 28.8327C35.9611 33.3897 32.0132 37.9605 28.7806 38.4622C25.548 38.964 20.4033 35.8022 19.6949 31.2521" fill="#FFCB05"/>
<path d="M24.2834 27.6513C24.1596 26.8609 25.4527 26.3179 26.8626 26.0979C28.2726 25.878 29.6688 26.0017 29.7926 26.7921C29.9577 27.8438 28.4102 29.0397 27.351 29.2047C26.2849 29.3696 24.4554 28.6961 24.2903 27.6444" fill="#231F20"/>
<path d="M27.2473 28.5835L27.5499 30.5149" stroke="#231F20" stroke-width="1.5" stroke-linecap="round" stroke-linejoin="round"/>
<path d="M23.8848 31.7126C24.27 32.2419 25.0266 32.5374 25.8381 32.4068C26.918 32.2419 27.6814 31.3896 27.5439 30.5029" stroke="#231F20" stroke-width="1.5" stroke-linecap="round" stroke-linejoin="round"/>
<path d="M31.4033 30.5527C31.197 31.1713 30.5642 31.68 29.7527 31.8106C28.6728 31.9755 27.6824 31.3982 27.5449 30.5184" stroke="#231F20" stroke-width="1.5" stroke-linecap="round" stroke-linejoin="round"/>
<path d="M42.2953 47.0612C44.6338 55.2954 42.5498 69.5301 40.9816 73.7297C39.4135 77.9361 35.3968 77.3175 35.3968 77.3175C31.2838 77.2144 30.9262 71.8326 30.7405 69.8463C30.6855 69.2551 30.5617 68.4441 30.4035 67.5918L28.0856 68.4029L27.9274 70.3755C27.7417 72.3688 27.9068 77.3794 23.4981 77.5787C23.4981 77.5787 19.9835 77.8743 18.2503 74.4789C16.5171 71.0835 16.0562 67.3375 16.0562 67.3375C14.8595 59.2339 15.9737 50.6216 15.9737 50.6216" fill="#9C8480"/>
<path d="M42.2953 47.0612C44.6338 55.2954 42.5498 69.5301 40.9816 73.7297C39.4135 77.9361 35.3968 77.3175 35.3968 77.3175C31.2838 77.2144 30.9262 71.8326 30.7405 69.8463C30.6855 69.2551 30.5617 68.4441 30.4035 67.5918L28.0856 68.4029L27.9274 70.3755C27.7417 72.3688 27.9068 77.3794 23.4981 77.5787C23.4981 77.5787 19.9835 77.8743 18.2503 74.4789C16.5171 71.0835 16.0562 67.3375 16.0562 67.3375C14.8595 59.2339 15.9737 50.6216 15.9737 50.6216" stroke="#231F20" stroke-width="1.5" stroke-linecap="round" stroke-linejoin="round"/>
<path d="M28.0859 68.3898C28.0859 68.3898 29.489 67.8125 30.9403 67.4276" stroke="#231F20" stroke-width="1.5" stroke-linecap="round" stroke-linejoin="round"/>
</svg>
