<svg width="49" height="80" viewBox="0 0 49 80" fill="none" xmlns="http://www.w3.org/2000/svg">
<path d="M31.4031 40.8447L20.99 52.2027L37.4625 52.9815L45.0901 45.0212L35.3235 38.6461L31.4031 40.8447Z" fill="#9C8480"/>
<path d="M15.0031 65.4265C8.91617 66.3707 9.49391 56.6323 10.9314 51.5666C12.3689 46.501 15.7115 42.9103 15.7115 42.9103L24.7765 35.8115L41.7443 31.759" fill="#9C8480"/>
<path d="M15.0031 65.4265C8.91617 66.3707 9.49391 56.6323 10.9314 51.5666C12.3689 46.501 15.7115 42.9103 15.7115 42.9103L24.7765 35.8115L41.7443 31.759" stroke="#231F20" stroke-width="1.5" stroke-miterlimit="10" stroke-linecap="round"/>
<path d="M42.3586 1.78613C41.4783 1.53801 40.536 1.47599 39.58 1.62072C35.9828 2.17897 33.5206 5.55605 34.0777 9.15367C34.6348 12.7582 38.0049 15.2255 41.6021 14.6604C45.1992 14.1021 47.6615 10.7251 47.1044 7.12743C46.6917 4.48779 44.7796 2.45465 42.3655 1.77923" fill="#9C8480"/>
<path d="M42.3586 1.78613C41.4783 1.53801 40.536 1.47599 39.58 1.62072C35.9828 2.17897 33.5206 5.55605 34.0777 9.15367C34.6348 12.7582 38.0049 15.2255 41.6021 14.6604C45.1992 14.1021 47.6615 10.7251 47.1044 7.12743C46.6917 4.48779 44.7796 2.45465 42.3655 1.77923" stroke="#231F20" stroke-width="1.5" stroke-miterlimit="10" stroke-linecap="round"/>
<path d="M1.66727 14.2031C1.11016 10.5986 3.57244 7.22837 7.16269 6.67012C10.7598 6.11187 14.1231 8.5792 14.6871 12.1768C15.2442 15.7813 12.7819 19.1515 9.18479 19.7098C5.58766 20.268 2.22438 17.8007 1.66727 14.2031" fill="#9C8480"/>
<path d="M1.66727 14.2031C1.11016 10.5986 3.57244 7.22837 7.16269 6.67012C10.7598 6.11187 14.1231 8.5792 14.6871 12.1768C15.2442 15.7813 12.7819 19.1515 9.18479 19.7098C5.58766 20.268 2.22438 17.8007 1.66727 14.2031V14.2031Z" stroke="#231F20" stroke-width="1.5" stroke-miterlimit="10" stroke-linecap="round"/>
<path d="M48.003 22.2681C49.7156 33.3367 42.0812 42.7512 29.6529 44.6878C17.2245 46.6245 7.09343 39.9668 5.38084 28.9051C3.66137 17.8366 11.1514 7.4848 23.5866 5.54815C36.0149 3.61149 46.2904 11.2065 48.003 22.2681" fill="#9C8480"/>
<path d="M48.003 22.2681C49.7156 33.3367 42.0812 42.7512 29.6529 44.6878C17.2245 46.6245 7.09343 39.9668 5.38084 28.9051C3.66137 17.8366 11.1514 7.4848 23.5866 5.54815C36.0149 3.61149 46.2904 11.2065 48.003 22.2681V22.2681Z" stroke="#231F20" stroke-width="1.5" stroke-miterlimit="10" stroke-linecap="round"/>
<path d="M35.2995 22.1704C35.1482 21.1986 34.2404 20.537 33.2706 20.6886C32.3008 20.8402 31.6405 21.75 31.785 22.7149C31.9363 23.6866 32.8441 24.3552 33.8139 24.2035C34.7837 24.0519 35.444 23.1422 35.2927 22.1704" fill="#231F20"/>
<path d="M20.9687 24.3965C20.8174 23.4248 19.9095 22.7631 18.9398 22.9148C17.97 23.0664 17.3097 23.9761 17.4541 24.941C17.6055 25.9128 18.5133 26.5813 19.4831 26.4297C20.4529 26.2781 21.1132 25.3683 20.9619 24.3965" fill="#231F20"/>
<path d="M19.695 31.8308C19.1654 28.3917 22.3567 25.9864 26.6485 25.3179C30.9472 24.6493 34.7162 25.9726 35.2527 29.4117C35.9611 33.9811 32.0132 38.5643 28.7806 39.0674C25.548 39.5705 20.4034 36.4002 19.695 31.8377" fill="#FFCB05"/>
<path d="M24.2834 28.2271C24.1596 27.4345 25.4526 26.89 26.8626 26.6695C28.2725 26.4489 29.6687 26.573 29.7925 27.3656C29.9576 28.4201 28.4101 29.6193 27.3509 29.7847C26.2848 29.9501 24.4553 29.2747 24.2903 28.2202" fill="#231F20"/>
<path d="M27.2472 29.1619L27.5498 31.0985" stroke="#231F20" stroke-width="1.5" stroke-linecap="round" stroke-linejoin="round"/>
<path d="M23.8848 32.2995C24.2699 32.8302 25.0265 33.1266 25.8381 32.9956C26.9179 32.8302 27.6814 31.9756 27.5438 31.0865" stroke="#231F20" stroke-width="1.5" stroke-linecap="round" stroke-linejoin="round"/>
<path d="M31.4033 31.1365C31.197 31.7567 30.5642 32.2667 29.7526 32.3977C28.6728 32.5631 27.6824 31.9842 27.5448 31.102" stroke="#231F20" stroke-width="1.5" stroke-linecap="round" stroke-linejoin="round"/>
<path d="M42.2952 47.6898C44.6337 55.9464 42.5497 70.2198 40.9815 74.4308C39.4134 78.6487 35.3967 78.0284 35.3967 78.0284C31.2837 77.925 30.9261 72.5286 30.7404 70.5368C30.6853 69.9441 30.5615 69.1308 30.4034 68.2762L28.0855 69.0895L27.9273 71.0675C27.7416 73.0662 27.9067 78.0904 23.498 78.2903C23.498 78.2903 19.9834 78.5867 18.2502 75.182C16.5169 71.7774 16.0561 68.0212 16.0561 68.0212C14.8594 59.8956 15.9736 51.2599 15.9736 51.2599" fill="#9C8480"/>
<path d="M42.2952 47.6898C44.6337 55.9464 42.5497 70.2198 40.9815 74.4308C39.4134 78.6487 35.3967 78.0284 35.3967 78.0284C31.2837 77.925 30.9261 72.5286 30.7404 70.5368C30.6853 69.9441 30.5615 69.1308 30.4034 68.2762L28.0855 69.0895L27.9273 71.0675C27.7416 73.0662 27.9067 78.0904 23.498 78.2903C23.498 78.2903 19.9834 78.5867 18.2502 75.182C16.5169 71.7774 16.0561 68.0212 16.0561 68.0212C14.8594 59.8956 15.9736 51.2599 15.9736 51.2599" stroke="#231F20" stroke-width="1.5" stroke-linecap="round" stroke-linejoin="round"/>
<path d="M28.0858 69.0764C28.0858 69.0764 29.4889 68.4975 30.9401 68.1115" stroke="#231F20" stroke-width="1.5" stroke-linecap="round" stroke-linejoin="round"/>
</svg>
